<?xml version="1.0" encoding="utf-8"?>
<!-- Generator: Adobe Illustrator 22.1.0, SVG Export Plug-In . SVG Version: 6.00 Build 0)  -->
<svg version="1.1" id="Layer_1" xmlns="http://www.w3.org/2000/svg" xmlns:xlink="http://www.w3.org/1999/xlink" x="0px" y="0px"
	 viewBox="0 0 265.7 274.2" style="enable-background:new 0 0 265.7 274.2;" xml:space="preserve">
<style type="text/css">
	.st0{fill:#68217A;}
	.st1{fill:#993399;}
	.st2{fill:#FFFFFF;}
	.st3{fill:#231F20;stroke:#FFFFFF;stroke-width:2;stroke-miterlimit:10;}
	.st4{fill:#49B749;stroke:#49B749;stroke-miterlimit:10;}
	.st5{font-family:'Consolas';}
	.st6{font-size:60px;}
	.st7{fill:#C2C1C1;stroke:#DEDEDD;stroke-width:1.847966e-02;}
</style>
<title>Logomark Full Purple</title>
<g id="Layer_2_1_">
	<g id="Layer_1-2">
		<path class="st0" d="M54.5,0.1l185.4,17.5c15.7,1.5,27.2,15.5,25.7,31.2L248,235.9c-1.4,15.7-15.3,27.3-31.1,25.8L60,246.9
			l9.7-24.9l-19.3,14.8l-18.2,13.9L0,274.2L23.4,26C24.8,10.3,38.7-1.3,54.5,0.1C54.4,0.1,54.5,0.1,54.5,0.1z"/>
		<path class="st1" d="M53.3,56l0.4-3.9c0.4-3.5,3.5-6,6.9-5.6l124.7,13.2c3.5,0.4,6,3.5,5.6,6.9l-0.4,3.9c-0.4,3.5-3.5,6-6.9,5.6
			L59,62.9C55.5,62.5,53,59.4,53.3,56z"/>
		<path class="st1" d="M96.8,99.4l0.4-3.9c0.4-3.5,3.5-6,6.9-5.6L228.8,103c3.5,0.4,6,3.5,5.6,6.9l-0.4,3.9c-0.4,3.5-3.5,6-6.9,5.6
			l-124.7-13.2C98.9,106,96.4,102.8,96.8,99.4z"/>
		<path class="st1" d="M40.4,178.5l0.4-3.9c0.4-3.5,3.5-6,6.9-5.6l124.7,13.2c3.5,0.4,6,3.5,5.6,6.9l-0.4,3.9
			c-0.4,3.5-3.5,6-6.9,5.6L46,185.4C42.5,185.1,40,182,40.4,178.5z"/>
		<path class="st1" d="M92.6,138.9L93,135c0.4-3.5,3.5-6,6.9-5.6l124.7,13.2c3.5,0.4,6,3.5,5.6,6.9l-0.4,3.9c-0.4,3.5-3.5,6-6.9,5.6
			L98.2,145.9C94.7,145.5,92.2,142.4,92.6,138.9z"/>
		<path class="st2" d="M140,53.9H89v58.8l34,31.3V86.9h17.9c11.4,0,17.1,5.7,17.1,14.5v42.7c0,8.9-5.4,14.8-17.1,14.8H89v32h51
			c27.3,0.2,53-13.5,53-45.1V99.7C193,67.8,167.4,53.9,140,53.9z"/>
	</g>
</g>
<g id="Layer_2">
	<rect x="119" y="178.3" class="st3" width="135.3" height="86.7"/>
	<text transform="matrix(1 0 0 1 121.0002 217)" class="st4 st5 st6">&gt;</text>
	<path class="st7" d="M226.5,194l-3.2,9.5c-1.3,0.1-2.7,0.3-4,0.6c-1.5,0.3-3,0.7-4.4,1.2l-7.3-7.1c-2.7,1.3-5.2,2.9-7.5,4.7
		l3.8,9.2c-2,2-3.8,4.2-5.2,6.6l-10.4-0.8c-1.2,2.6-2.1,5.4-2.7,8.2l9,4.6c-0.3,2.7-0.2,5.5,0.3,8.3l-8.5,5.9c0.8,2.8,2,5.5,3.4,7.9
		l10-2.2c1.6,2.3,3.5,4.3,5.7,6.1l-2.7,9.8c2.5,1.6,5.1,2.9,7.9,3.9l6.4-7.9c2.7,0.7,5.5,1.1,8.4,1l4.4,9.1c1.3-0.2,2.5-0.4,3.8-0.6
		c1.7-0.4,3.3-0.8,4.8-1.3l-0.3-10c2.6-1.2,5-2.7,7.2-4.5l9.4,4.2c2.1-2.1,3.9-4.4,5.4-6.9l-6.8-7.4c1.2-2.5,2.1-5.1,2.6-7.9l10-2.7
		c0.2-2.8,0.1-5.7-0.4-8.6l-10.2-1.3c-0.7-2.7-1.8-5.3-3.2-7.6l6-8.3c-1.8-2.3-3.8-4.4-6-6.3l-8.7,5.3c-2.3-1.6-4.8-2.8-7.5-3.8
		l-0.9-10.1C232.5,194.4,229.5,194,226.5,194L226.5,194z M224.7,229.1c2.8-0.6,5.6,1.1,6.2,3.8s-1.3,5.4-4.1,6
		c-2.8,0.6-5.6-1.1-6.2-3.8C220,232.4,221.8,229.7,224.7,229.1z"/>
</g>
</svg>
